<svg xmlns="http://www.w3.org/2000/svg" xmlns:xlink="http://www.w3.org/1999/xlink" preserveAspectRatio="xMidYMid" width="24" height="24" viewBox="0 0 24 24">
  <defs>
    <style>
      .cls-1 {
        fill: #aad7fe;
        fill-rule: evenodd;
      }
    </style>
  </defs>
  <path d="M12.000,24.000 C5.383,24.000 -0.000,18.617 -0.000,12.000 C-0.000,5.383 5.383,-0.000 12.000,-0.000 C18.617,-0.000 24.000,5.383 24.000,12.000 C24.000,18.617 18.617,24.000 12.000,24.000 ZM12.000,0.960 C5.912,0.960 0.960,5.912 0.960,12.000 C0.960,18.088 5.912,23.040 12.000,23.040 C18.088,23.040 23.040,18.088 23.040,12.000 C23.040,5.912 18.088,0.960 12.000,0.960 ZM15.238,12.567 C15.238,12.040 15.159,11.657 15.002,11.419 C14.844,11.181 14.567,11.062 14.172,11.062 C13.730,11.062 13.386,11.289 13.140,11.742 L13.140,18.502 L10.697,18.502 L10.697,9.196 L12.985,9.196 L13.054,10.116 C13.604,9.388 14.324,9.024 15.212,9.024 C16.812,9.024 17.635,10.145 17.681,12.387 L17.681,18.502 L15.238,18.502 L15.238,12.567 ZM7.643,8.086 C7.236,8.086 6.914,7.963 6.676,7.716 C6.438,7.470 6.319,7.160 6.319,6.787 C6.319,6.409 6.439,6.099 6.680,5.858 C6.921,5.618 7.242,5.497 7.643,5.497 C8.045,5.497 8.366,5.618 8.607,5.858 C8.847,6.099 8.968,6.409 8.968,6.787 C8.968,7.160 8.849,7.470 8.611,7.716 C8.373,7.963 8.050,8.086 7.643,8.086 ZM8.873,18.502 L6.431,18.502 L6.431,9.196 L8.873,9.196 L8.873,18.502 Z" class="cls-1"/>
</svg>
