<svg xmlns="http://www.w3.org/2000/svg" xmlns:xlink="http://www.w3.org/1999/xlink" preserveAspectRatio="xMidYMid" width="24.719" height="23.969" viewBox="0 0 24.719 23.969">
  <defs>
    <style>
      .cls-1 {
        fill: #aad7fe;
        fill-rule: evenodd;
      }
    </style>
  </defs>
  <path d="M-0.000,23.438 L1.545,19.469 L3.090,19.469 L3.863,18.719 L3.090,17.969 L20.858,0.718 C21.160,0.425 21.649,0.426 21.951,0.718 L21.951,0.718 L22.497,0.188 C22.799,-0.105 23.288,-0.105 23.590,0.188 C24.149,0.731 23.936,0.524 24.495,1.066 C24.797,1.360 24.797,1.834 24.495,2.127 L23.949,2.658 C24.250,2.950 24.250,3.425 23.949,3.719 L23.336,4.313 L24.156,5.109 C24.307,5.255 24.307,5.493 24.156,5.639 L18.147,11.473 C17.996,11.619 17.751,11.619 17.600,11.473 C17.450,11.326 17.450,11.089 17.600,10.942 L23.336,5.374 L22.790,4.844 L6.180,20.969 L5.408,20.219 L4.635,20.969 L4.635,22.469 L0.546,23.969 L-0.000,23.438 L-0.000,23.438 ZM20.792,1.843 L22.790,3.783 L23.402,3.188 L21.405,1.249 L20.792,1.843 L20.792,1.843 ZM22.244,4.313 L20.246,2.374 L4.182,17.968 L6.180,19.908 L22.244,4.313 L22.244,4.313 ZM22.497,1.249 L23.402,2.127 L23.949,1.597 C23.647,1.304 23.345,1.011 23.044,0.718 L22.497,1.249 L22.497,1.249 ZM3.004,21.582 L1.874,22.680 L3.863,21.950 L3.863,20.658 L4.861,19.688 L4.409,19.249 L3.410,20.218 L2.079,20.218 L1.327,22.150 L2.458,21.052 C2.609,20.905 2.853,20.905 3.004,21.052 C3.155,21.198 3.155,21.436 3.004,21.582 Z" class="cls-1"/>
</svg>
