<svg xmlns="http://www.w3.org/2000/svg" xmlns:xlink="http://www.w3.org/1999/xlink" preserveAspectRatio="xMidYMid" width="24.719" height="25" viewBox="0 0 24.719 25">
  <defs>
    <style>
      .cls-1 {
        fill: #aad7fe;
        fill-rule: evenodd;
      }
    </style>
  </defs>
  <path d="M-0.000,25.000 L-0.000,9.267 L3.818,9.267 L3.818,6.178 L20.903,6.178 L20.903,9.267 L24.722,9.267 L24.722,25.000 L-0.000,25.000 ZM23.675,10.326 L19.857,10.326 L19.857,7.236 L4.865,7.236 L4.865,10.326 L1.046,10.326 L1.046,23.941 L23.675,23.941 L23.675,10.326 ZM5.106,15.203 L3.578,15.203 L3.578,12.886 L5.106,12.886 L5.106,15.203 ZM5.106,18.292 L3.578,18.292 L3.578,15.975 L5.106,15.975 L5.106,18.292 ZM5.106,21.381 L3.578,21.381 L3.578,19.064 L5.106,19.064 L5.106,21.381 ZM7.397,15.203 L5.869,15.203 L5.869,12.886 L7.397,12.886 L7.397,15.203 ZM7.397,18.292 L5.869,18.292 L5.869,15.975 L7.397,15.975 L7.397,18.292 ZM7.397,21.381 L5.869,21.381 L5.869,19.064 L7.397,19.064 L7.397,21.381 ZM9.688,15.203 L8.160,15.203 L8.160,12.886 L9.688,12.886 L9.688,15.203 ZM9.688,18.292 L8.160,18.292 L8.160,15.975 L9.688,15.975 L9.688,18.292 ZM9.688,21.381 L8.160,21.381 L8.160,19.064 L9.688,19.064 L9.688,21.381 ZM11.979,15.203 L10.451,15.203 L10.451,12.886 L11.979,12.886 L11.979,15.203 ZM11.979,18.292 L10.451,18.292 L10.451,15.975 L11.979,15.975 L11.979,18.292 ZM11.979,21.381 L10.451,21.381 L10.451,19.064 L11.979,19.064 L11.979,21.381 ZM14.270,15.203 L12.743,15.203 L12.743,12.886 L14.270,12.886 L14.270,15.203 ZM14.270,18.292 L12.743,18.292 L12.743,15.975 L14.270,15.975 L14.270,18.292 ZM14.270,21.381 L12.743,21.381 L12.743,19.064 L14.270,19.064 L14.270,21.381 ZM16.561,15.203 L15.034,15.203 L15.034,12.886 L16.561,12.886 L16.561,15.203 ZM16.561,18.292 L15.034,18.292 L15.034,15.975 L16.561,15.975 L16.561,18.292 ZM16.561,21.381 L15.034,21.381 L15.034,19.064 L16.561,19.064 L16.561,21.381 ZM18.852,15.203 L17.325,15.203 L17.325,12.886 L18.852,12.886 L18.852,15.203 ZM18.852,18.292 L17.325,18.292 L17.325,15.975 L18.852,15.975 L18.852,18.292 ZM18.852,21.381 L17.325,21.381 L17.325,19.064 L18.852,19.064 L18.852,21.381 ZM21.144,15.203 L19.616,15.203 L19.616,12.886 L21.144,12.886 L21.144,15.203 ZM21.144,18.292 L19.616,18.292 L19.616,15.975 L21.144,15.975 L21.144,18.292 ZM21.144,21.381 L19.616,21.381 L19.616,19.064 L21.144,19.064 L21.144,21.381 ZM13.844,5.000 C12.840,4.657 12.115,4.601 10.452,4.601 L9.929,4.601 L9.928,4.072 L9.928,-0.000 L10.451,-0.000 C12.354,-0.000 13.651,0.559 14.692,1.008 C15.409,1.317 15.975,1.561 16.552,1.561 L16.552,1.561 L17.084,1.559 L17.084,5.861 L16.542,5.841 C15.652,5.809 14.613,5.262 13.844,5.000 ZM16.038,2.577 C15.442,2.482 14.875,2.237 14.282,1.981 C13.385,1.595 12.382,1.162 10.975,1.074 L10.975,3.554 C12.517,3.621 13.561,3.978 14.493,4.296 C15.034,4.480 15.519,4.646 16.038,4.730 L16.038,2.577 Z" class="cls-1"/>
</svg>
