<svg xmlns="http://www.w3.org/2000/svg" xmlns:xlink="http://www.w3.org/1999/xlink" preserveAspectRatio="xMidYMid" width="24.719" height="23" viewBox="0 0 24.719 23">
  <defs>
    <style>
      .cls-1 {
        fill: #aad7fe;
        fill-rule: evenodd;
      }
    </style>
  </defs>
  <path d="M23.871,8.222 L19.782,7.645 C18.629,5.998 16.920,4.757 14.913,4.179 L13.099,0.584 C12.690,-0.225 12.026,-0.227 11.617,0.584 L9.801,4.182 C7.803,4.762 6.099,6.001 4.950,7.643 L0.844,8.222 C-0.071,8.351 -0.278,8.967 0.386,9.597 L3.390,12.449 C3.389,12.491 3.386,12.531 3.386,12.573 C3.386,14.567 4.071,16.403 5.221,17.875 L4.501,21.955 C4.344,22.843 4.881,23.226 5.700,22.804 L9.477,20.863 C10.385,21.164 11.356,21.333 12.368,21.333 C13.376,21.333 14.343,21.167 15.248,20.868 L19.016,22.804 C19.833,23.225 20.372,22.845 20.215,21.955 L19.498,17.896 C20.658,16.420 21.350,14.576 21.350,12.573 C21.350,12.526 21.343,12.481 21.342,12.434 L24.329,9.597 C24.992,8.968 24.788,8.351 23.871,8.222 L23.871,8.222 L23.871,8.222 ZM18.181,7.419 L16.424,7.171 L15.633,5.605 C16.604,6.038 17.471,6.658 18.181,7.419 L18.181,7.419 L18.181,7.419 ZM9.076,5.617 L8.292,7.171 L6.563,7.416 C7.265,6.664 8.118,6.050 9.076,5.617 L9.076,5.617 L9.076,5.617 ZM4.582,13.582 L5.779,14.718 L5.501,16.293 C5.031,15.470 4.713,14.555 4.582,13.582 L4.582,13.582 L4.582,13.582 ZM12.368,20.238 C11.882,20.238 11.408,20.191 10.946,20.108 L12.358,19.383 L13.775,20.111 C13.318,20.191 12.849,20.238 12.368,20.238 L12.368,20.238 L12.368,20.238 ZM19.219,16.320 L18.936,14.718 L20.157,13.560 C20.026,14.552 19.701,15.484 19.219,16.320 L19.219,16.320 L19.219,16.320 ZM17.734,14.337 L19.010,21.565 L12.358,18.149 L5.700,21.595 L6.981,14.337 L1.635,9.259 L9.035,8.169 L12.358,1.659 L15.680,8.169 L23.137,9.221 L17.734,14.337 L17.734,14.337 ZM12.368,8.193 C9.888,8.193 7.877,10.154 7.877,12.573 C7.877,14.992 9.888,16.953 12.368,16.953 C14.848,16.953 16.859,14.992 16.859,12.573 C16.859,10.154 14.848,8.193 12.368,8.193 L12.368,8.193 L12.368,8.193 ZM12.368,15.858 C10.507,15.858 8.999,14.387 8.999,12.573 C8.999,10.759 10.507,9.288 12.368,9.288 C14.228,9.288 15.736,10.759 15.736,12.573 C15.736,14.387 14.228,15.858 12.368,15.858 L12.368,15.858 L12.368,15.858 Z" class="cls-1"/>
</svg>
