<svg xmlns="http://www.w3.org/2000/svg" xmlns:xlink="http://www.w3.org/1999/xlink" preserveAspectRatio="xMidYMid" width="18" height="21" viewBox="0 0 18 21">
  <defs>
    <style>
      .cls-1 {
        fill: #afd9fe;
        fill-rule: evenodd;
      }
    </style>
  </defs>
  <path d="M16.673,20.744 L15.827,20.744 L15.827,21.001 L15.138,21.001 L15.138,20.744 L1.312,20.744 C0.583,20.744 -0.011,20.161 -0.011,19.446 L-0.011,1.604 C-0.011,0.888 0.583,0.306 1.312,0.306 L15.138,0.306 L15.138,-0.002 L15.827,-0.002 L15.827,0.306 L16.673,0.306 C17.402,0.306 17.995,0.888 17.995,1.604 L17.995,19.446 C17.995,20.161 17.402,20.744 16.673,20.744 ZM15.138,0.982 L1.312,0.982 C0.963,0.982 0.678,1.261 0.678,1.604 L0.678,19.446 C0.678,19.789 0.963,20.067 1.312,20.067 L15.138,20.067 L15.138,0.982 ZM17.306,1.604 C17.306,1.261 17.022,0.982 16.673,0.982 L15.827,0.982 L15.827,20.067 L16.673,20.067 C17.022,20.067 17.306,19.789 17.306,19.446 L17.306,1.604 ZM4.452,13.083 L13.479,13.083 C13.669,13.083 13.823,13.234 13.823,13.421 C13.823,13.608 13.669,13.759 13.479,13.759 L4.452,13.759 C4.262,13.759 4.108,13.608 4.108,13.421 C4.108,13.234 4.262,13.083 4.452,13.083 ZM4.452,14.662 L13.479,14.662 C13.669,14.662 13.823,14.813 13.823,15.000 C13.823,15.187 13.669,15.338 13.479,15.338 L4.452,15.338 C4.262,15.338 4.108,15.187 4.108,15.000 C4.108,14.813 4.262,14.662 4.452,14.662 ZM13.418,11.637 L4.512,11.637 C4.321,11.637 4.167,11.486 4.167,11.299 L4.167,7.461 C4.167,7.275 4.321,7.123 4.512,7.123 L13.418,7.123 C13.608,7.123 13.762,7.275 13.762,7.461 L13.762,11.299 C13.762,11.486 13.608,11.637 13.418,11.637 ZM13.073,7.799 L4.856,7.799 L4.856,10.961 L13.073,10.961 L13.073,7.799 Z" class="cls-1"/>
</svg>
