<svg xmlns="http://www.w3.org/2000/svg" xmlns:xlink="http://www.w3.org/1999/xlink" preserveAspectRatio="xMidYMid" width="24.719" height="25" viewBox="0 0 24.719 25">
  <defs>
    <style>
      .cls-1 {
        fill: #aad7fe;
        fill-rule: evenodd;
      }
    </style>
  </defs>
  <path d="M24.722,15.310 C24.722,15.803 24.441,16.255 23.888,16.653 C23.437,16.978 22.803,17.267 22.003,17.514 C20.534,17.966 18.596,18.233 16.518,18.292 C16.408,18.830 16.247,19.357 16.032,19.868 C15.611,20.869 15.010,21.768 14.243,22.539 C13.477,23.311 12.585,23.916 11.591,24.339 C10.562,24.778 9.470,25.000 8.344,25.000 C7.218,25.000 6.125,24.778 5.097,24.339 C4.103,23.916 3.211,23.311 2.444,22.539 C1.678,21.768 1.076,20.869 0.656,19.868 C0.221,18.832 -0.000,17.731 -0.000,16.597 C-0.000,15.462 0.221,14.362 0.656,13.325 C1.076,12.325 1.678,11.426 2.444,10.654 C3.211,9.883 4.103,9.277 5.097,8.854 C5.606,8.637 6.131,8.474 6.668,8.364 L6.668,6.125 C6.668,6.124 6.668,6.123 6.668,6.122 L6.668,6.122 L6.668,3.266 L6.708,3.266 C6.689,3.179 6.668,3.092 6.668,3.002 C6.668,2.497 6.962,2.037 7.540,1.632 C8.012,1.301 8.674,1.009 9.508,0.761 C11.167,0.270 13.364,-0.000 15.695,-0.000 C18.026,-0.000 20.223,0.270 21.882,0.761 C22.716,1.009 23.378,1.301 23.850,1.632 C24.429,2.037 24.722,2.497 24.722,3.002 C24.722,3.092 24.701,3.179 24.682,3.266 L24.722,3.266 L24.722,15.310 ZM0.920,16.597 C0.920,20.717 4.250,24.069 8.344,24.069 C12.438,24.069 15.768,20.717 15.768,16.597 C15.768,12.476 12.438,9.124 8.344,9.124 C4.250,9.124 0.920,12.476 0.920,16.597 ZM9.151,8.234 C8.520,8.021 7.981,7.786 7.588,7.519 L7.588,8.231 C7.839,8.209 8.090,8.194 8.344,8.194 C8.615,8.194 8.884,8.208 9.151,8.234 ZM21.623,1.654 C20.046,1.187 17.941,0.930 15.695,0.930 C13.449,0.930 11.344,1.187 9.767,1.654 C8.262,2.100 7.588,2.652 7.588,3.002 C7.588,3.351 8.262,3.903 9.767,4.349 C11.344,4.816 13.449,5.073 15.695,5.073 C17.941,5.073 20.046,4.816 21.623,4.349 C23.128,3.903 23.802,3.351 23.802,3.002 C23.802,2.652 23.128,2.100 21.623,1.654 ZM23.802,4.398 C23.333,4.717 22.692,5.002 21.882,5.242 C20.223,5.733 18.026,6.003 15.695,6.003 C13.364,6.003 11.167,5.733 9.508,5.242 C8.698,5.002 8.058,4.717 7.588,4.398 L7.588,6.124 C7.590,6.473 8.263,7.025 9.767,7.470 C11.344,7.937 13.449,8.194 15.695,8.194 C17.941,8.194 20.046,7.937 21.623,7.470 C23.128,7.024 23.802,6.472 23.802,6.122 L23.802,4.398 ZM23.802,7.519 C23.333,7.838 22.692,8.123 21.882,8.363 C20.223,8.854 18.026,9.124 15.695,9.124 C14.149,9.124 12.678,8.995 11.367,8.772 C11.441,8.801 11.518,8.823 11.591,8.854 C12.585,9.277 13.477,9.883 14.243,10.654 C14.422,10.834 14.560,11.044 14.721,11.237 C15.039,11.248 15.362,11.257 15.695,11.257 C17.941,11.257 20.046,11.000 21.623,10.533 C23.128,10.087 23.802,9.534 23.802,9.185 L23.802,7.519 ZM23.802,10.581 C23.333,10.900 22.692,11.185 21.882,11.425 C20.223,11.917 18.026,12.187 15.695,12.187 C15.600,12.187 15.511,12.182 15.417,12.181 C15.643,12.549 15.863,12.923 16.032,13.325 C16.166,13.644 16.272,13.970 16.365,14.300 C18.354,14.254 20.206,14.015 21.623,13.595 C23.128,13.150 23.802,12.597 23.802,12.248 L23.802,10.581 ZM23.802,13.644 C23.333,13.963 22.692,14.248 21.882,14.488 C20.434,14.917 18.567,15.165 16.568,15.224 C16.642,15.675 16.688,16.132 16.688,16.597 C16.688,16.852 16.673,17.104 16.651,17.356 C18.587,17.290 20.380,17.041 21.736,16.624 C23.261,16.154 23.802,15.623 23.802,15.310 L23.802,13.644 ZM9.009,11.573 C9.943,11.573 10.677,11.856 11.210,12.421 C11.744,12.986 12.011,13.739 12.011,14.678 C12.011,15.655 11.757,16.408 11.248,16.936 C10.740,17.464 10.023,17.737 9.099,17.756 L7.070,17.756 L7.070,19.013 L12.011,19.013 L12.011,20.290 L7.070,20.290 L7.070,21.734 L5.807,21.734 L5.807,20.290 L4.677,20.290 L4.677,19.013 L5.807,19.013 L5.807,11.573 L9.009,11.573 ZM9.009,16.660 C9.570,16.660 10.000,16.490 10.299,16.150 C10.599,15.810 10.748,15.323 10.748,14.689 C10.748,14.078 10.594,13.589 10.286,13.221 C9.977,12.853 9.554,12.669 9.016,12.669 L7.070,12.669 L7.070,16.660 L9.009,16.660 Z" class="cls-1"/>
</svg>
