<svg xmlns="http://www.w3.org/2000/svg" viewBox="0 0 24 22.03"><defs><style>.cls-1{fill:#afd9fe;}</style></defs><title>Ресурс 1</title><g id="Слой_2" data-name="Слой 2"><g id="Слой_1-2" data-name="Слой 1"><path class="cls-1" d="M24,16.54c-2.82,0-5.5,0-8.17,0a.8.8,0,0,0-.56.28A3.15,3.15,0,0,1,12,18a2.5,2.5,0,0,0-.67,0,2,2,0,0,1-2.11-.84,1.74,1.74,0,0,0-1.6-.68c-2,0-4,0-6,0H0c.26,1.61.56,3.12.73,4.65a.8.8,0,0,0,1,.81c6.66,0,13.31,0,20,0a5.35,5.35,0,0,0,1,0,.62.62,0,0,0,.43-.35C23.43,20,23.7,18.31,24,16.54Z"/><path class="cls-1" d="M23.34,5.42H.62l.79,9.72H3.79c-.2-2.54-.39-5-.59-7.56H20.69l-.52,7.54h2.37Z"/><polygon class="cls-1" points="2.13 4.09 21.78 4.09 21.98 2.54 1.92 2.54 2.13 4.09"/><polygon class="cls-1" points="10.34 11.96 7.13 15.05 17.77 15.05 13.87 10.05 11.48 12.93 10.34 11.96"/><path class="cls-1" d="M3.4,0c.21,1.65,0,1.36,1.51,1.36,4.89,0,9.77,0,14.66,0h.9L20.69,0Z"/><path class="cls-1" d="M8,8.8A1.24,1.24,0,1,0,8,11.25,1.33,1.33,0,0,0,9.44,10h0A1.36,1.36,0,0,0,8,8.8Z"/><path class="cls-1" d="M24,16.54c-.3,1.77-.57,3.42-.87,5.07a.62.62,0,0,1-.43.35,5.35,5.35,0,0,1-1,0c-6.66,0-13.31,0-20,0a.8.8,0,0,1-1-.81c-.18-1.52-.47-3-.73-4.65H1.56c2,0,4,0,6,0a1.74,1.74,0,0,1,1.6.68,2,2,0,0,0,2.11.84A2.5,2.5,0,0,1,12,18a3.15,3.15,0,0,0,3.29-1.22.8.8,0,0,1,.56-.28C18.5,16.54,21.18,16.54,24,16.54Z"/><path class="cls-1" d="M23.34,5.42l-.8,9.7H20.17l.52-7.54H3.2c.2,2.53.39,5,.59,7.56H1.41L.62,5.42H23.34Z"/><polygon class="cls-1" points="2.13 4.09 1.92 2.54 21.98 2.54 21.79 4.09 2.13 4.09"/><polygon class="cls-1" points="10.34 11.96 11.48 12.93 13.87 10.05 17.77 15.05 7.13 15.05 10.34 11.96"/><path class="cls-1" d="M3.4,0H20.69l-.22,1.37h-.9c-4.89,0-9.78,0-14.66,0C3.39,1.35,3.6,1.65,3.4,0Z"/><path class="cls-1" d="M8,8.8A1.36,1.36,0,0,1,9.44,10,1.33,1.33,0,0,1,8,11.25H8A1.24,1.24,0,1,1,8,8.8Z"/></g></g></svg>