<svg xmlns="http://www.w3.org/2000/svg" xmlns:xlink="http://www.w3.org/1999/xlink" preserveAspectRatio="xMidYMid" width="24" height="21" viewBox="0 0 24 21">
  <defs>
    <style>
      .cls-1 {
        fill: #aad7fe;
        fill-rule: evenodd;
      }
    </style>
  </defs>
  <path d="M22.804,21.000 L1.208,21.000 C1.002,21.000 0.797,20.947 0.617,20.845 C0.338,20.686 0.138,20.431 0.053,20.124 C-0.032,19.817 0.008,19.495 0.167,19.219 L10.967,0.598 C11.168,0.248 11.533,0.024 11.940,0.003 L11.967,0.001 L12.066,0.003 C12.471,0.019 12.840,0.243 13.046,0.599 L23.843,19.217 C23.947,19.398 24.001,19.602 24.001,19.808 C24.001,20.465 23.464,21.000 22.804,21.000 ZM12.018,0.956 C11.911,0.960 11.839,1.005 11.799,1.074 L0.999,19.694 C0.959,19.765 0.969,19.835 0.978,19.870 C0.988,19.906 1.016,19.972 1.090,20.014 C1.126,20.034 1.167,20.045 1.208,20.045 L22.804,20.045 C22.935,20.045 23.042,19.938 23.042,19.808 C23.042,19.767 23.031,19.727 23.011,19.691 L12.214,1.076 C12.173,1.004 12.100,0.959 12.018,0.956 ZM12.006,19.089 C10.943,19.089 10.078,18.228 10.078,17.170 C10.078,16.403 10.534,15.739 11.190,15.433 C11.083,15.344 11.007,15.218 10.987,15.073 C10.979,15.008 10.288,9.400 10.080,6.652 L10.078,6.553 C10.071,6.084 10.255,5.636 10.597,5.291 C11.333,4.546 12.679,4.547 13.415,5.291 C13.757,5.637 13.941,6.084 13.934,6.552 L13.932,6.652 C13.725,9.400 13.033,15.008 13.026,15.065 C13.005,15.214 12.929,15.343 12.821,15.432 C13.478,15.739 13.934,16.403 13.934,17.170 C13.934,18.228 13.069,19.089 12.006,19.089 ZM12.006,16.207 C11.472,16.207 11.038,16.639 11.038,17.170 C11.038,17.702 11.472,18.134 12.006,18.134 C12.540,18.134 12.974,17.702 12.974,17.170 C12.974,16.639 12.540,16.207 12.006,16.207 ZM11.897,14.608 L12.115,14.608 C12.266,13.363 12.799,8.919 12.975,6.580 C12.977,6.327 12.891,6.123 12.731,5.961 C12.354,5.580 11.660,5.580 11.281,5.961 C11.121,6.123 11.034,6.327 11.038,6.537 C11.213,8.910 11.744,13.349 11.897,14.608 Z" class="cls-1"/>
</svg>
