<svg xmlns="http://www.w3.org/2000/svg" xmlns:xlink="http://www.w3.org/1999/xlink" preserveAspectRatio="xMidYMid" width="24" height="24" viewBox="0 0 24 24">
  <defs>
    <style>
      .cls-1 {
        fill: #aad7fe;
        fill-rule: evenodd;
      }
    </style>
  </defs>
  <path d="M22.845,6.866 C21.544,4.128 19.278,1.999 16.465,0.870 C15.044,0.300 13.539,0.011 11.994,0.011 C10.518,0.011 9.077,0.275 7.711,0.797 C5.059,1.808 2.844,3.736 1.471,6.226 C0.500,7.985 -0.013,9.983 -0.013,12.005 C-0.013,12.541 0.023,13.079 0.093,13.606 C0.204,14.438 0.404,15.260 0.688,16.050 C1.493,18.298 2.942,20.240 4.877,21.666 L4.956,21.723 L4.956,21.723 C6.922,23.146 9.243,23.931 11.672,23.994 C11.775,23.997 11.880,23.998 11.993,23.998 C15.194,23.998 18.205,22.755 20.471,20.497 C22.538,18.439 23.781,15.708 23.973,12.808 C23.991,12.535 24.000,12.265 24.000,12.005 C24.000,10.207 23.611,8.478 22.845,6.866 ZM21.890,7.826 L22.892,12.467 L21.243,15.582 L18.713,14.611 L17.755,9.923 L19.593,6.969 L21.890,7.826 ZM22.036,7.250 L19.641,6.357 L16.650,3.030 L16.650,1.589 C19.080,2.673 21.057,4.575 22.236,6.965 L22.036,7.250 ZM10.114,16.877 L14.469,18.234 L15.267,21.041 L11.662,22.734 L7.422,21.350 L6.544,18.486 L10.114,16.877 ZM10.346,16.331 L9.361,11.874 L12.700,8.703 L17.188,10.097 L18.132,14.717 L14.642,17.671 L10.346,16.331 ZM11.730,4.289 L12.308,8.261 L8.950,11.450 L5.004,10.479 L4.343,6.463 L8.023,3.324 L11.730,4.289 ZM11.997,0.482 L11.997,0.601 C13.396,0.601 14.763,0.851 16.060,1.346 L16.060,2.903 L12.001,3.751 L8.229,2.768 L8.126,1.273 C9.364,0.827 10.665,0.601 11.994,0.601 L11.997,0.482 L11.997,0.482 ZM1.297,14.919 L2.932,14.919 L5.921,18.467 L6.776,21.258 L5.159,21.140 C3.369,19.801 2.022,17.992 1.263,15.903 L1.297,14.919 ZM1.181,14.329 L0.671,13.469 C0.610,12.985 0.578,12.492 0.578,12.005 C0.578,10.142 1.037,8.296 1.907,6.662 L3.775,6.644 L4.440,10.681 L2.875,14.329 L1.181,14.329 ZM11.977,23.238 L15.720,21.479 L19.812,20.192 L19.867,20.262 C17.735,22.292 14.944,23.409 11.994,23.409 L11.977,23.409 L11.977,23.238 ZM23.370,12.949 C23.159,15.522 22.067,17.961 20.287,19.841 L20.253,19.798 L21.648,16.079 L23.320,12.920 L23.370,12.949 Z" class="cls-1"/>
</svg>
