<svg xmlns="http://www.w3.org/2000/svg" xmlns:xlink="http://www.w3.org/1999/xlink" preserveAspectRatio="xMidYMid" width="24" height="25" viewBox="0 0 24 25">
  <defs>
    <style>
      .cls-1 {
        fill: #aad7fe;
        fill-rule: evenodd;
      }
    </style>
  </defs>
  <path d="M21.336,25.000 L2.667,25.000 C1.194,25.000 -0.000,23.756 -0.000,22.222 L-0.000,2.777 C-0.000,1.244 1.194,-0.000 2.667,-0.000 L21.336,-0.000 C22.809,-0.000 24.003,1.244 24.003,2.777 L24.003,22.222 C24.003,23.756 22.809,25.000 21.336,25.000 ZM23.203,3.055 C23.203,1.484 22.578,0.833 21.069,0.833 L2.933,0.833 C1.424,0.833 0.800,1.484 0.800,3.055 L0.800,21.944 C0.800,23.516 1.424,24.166 2.933,24.166 L8.267,24.166 L8.267,17.777 L6.418,16.092 C6.145,16.279 5.819,16.389 5.467,16.389 C4.510,16.389 3.734,15.580 3.734,14.583 C3.734,13.586 4.510,12.778 5.467,12.778 C6.425,12.778 7.201,13.586 7.201,14.583 C7.201,14.863 7.139,15.128 7.030,15.365 L9.068,17.222 L9.068,24.166 L10.668,24.166 L10.668,16.389 L8.267,14.167 L8.267,10.784 C7.503,10.596 6.934,9.881 6.934,9.027 C6.934,8.030 7.710,7.222 8.668,7.222 C9.625,7.222 10.401,8.030 10.401,9.027 C10.401,9.881 9.832,10.596 9.068,10.784 L9.068,13.611 L11.468,15.833 L11.468,24.166 L12.801,24.166 L12.801,11.944 L14.935,10.000 L14.935,7.222 L15.335,7.222 L15.735,7.222 L15.735,10.555 L13.601,12.500 L13.601,24.166 L15.202,24.166 L15.202,13.333 L17.059,11.640 C16.896,11.365 16.802,11.041 16.802,10.694 C16.802,9.697 17.578,8.889 18.536,8.889 C19.493,8.889 20.269,9.697 20.269,10.694 C20.269,11.691 19.493,12.500 18.536,12.500 C18.250,12.500 17.982,12.428 17.744,12.300 L16.002,13.888 L16.002,24.166 L21.069,24.166 C22.578,24.166 23.203,23.516 23.203,21.944 L23.203,3.055 ZM6.401,14.583 C6.401,14.046 5.983,13.611 5.467,13.611 C4.952,13.611 4.534,14.046 4.534,14.583 C4.534,15.120 4.952,15.555 5.467,15.555 C5.983,15.555 6.401,15.120 6.401,14.583 ZM8.668,10.000 C9.183,10.000 9.601,9.564 9.601,9.027 C9.601,8.490 9.183,8.055 8.668,8.055 C8.152,8.055 7.734,8.490 7.734,9.027 C7.734,9.564 8.152,10.000 8.668,10.000 ZM17.602,10.694 C17.602,11.231 18.020,11.666 18.536,11.666 C19.051,11.666 19.469,11.231 19.469,10.694 C19.469,10.157 19.051,9.722 18.536,9.722 C18.020,9.722 17.602,10.157 17.602,10.694 ZM13.601,5.416 C13.601,4.419 14.378,3.611 15.335,3.611 C16.293,3.611 17.069,4.419 17.069,5.416 C17.069,6.414 16.293,7.222 15.335,7.222 C14.378,7.222 13.601,6.414 13.601,5.416 ZM15.335,6.389 C15.851,6.389 16.268,5.953 16.268,5.416 C16.268,4.879 15.851,4.444 15.335,4.444 C14.819,4.444 14.402,4.879 14.402,5.416 C14.402,5.953 14.819,6.389 15.335,6.389 Z" class="cls-1"/>
</svg>
