<svg xmlns="http://www.w3.org/2000/svg" xmlns:xlink="http://www.w3.org/1999/xlink" preserveAspectRatio="xMidYMid" width="32" height="32" viewBox="0 0 32 32">
  <defs>
    <style>
      .cls-1 {
        fill: #41464b;
        fill-rule: evenodd;
      }
    </style>
  </defs>
  <path d="M16.000,32.000 C7.163,32.000 0.000,24.837 0.000,16.000 C0.000,7.163 7.163,0.000 16.000,0.000 C24.837,0.000 32.000,7.163 32.000,16.000 C32.000,24.837 24.837,32.000 16.000,32.000 ZM16.000,1.000 C7.716,1.000 1.000,7.716 1.000,16.000 C1.000,24.284 7.716,31.000 16.000,31.000 C24.284,31.000 31.000,24.284 31.000,16.000 C31.000,7.716 24.284,1.000 16.000,1.000 ZM19.852,12.447 L19.590,15.828 L17.078,15.828 L17.078,25.973 L13.600,25.973 L13.600,15.828 L11.862,15.828 L11.862,12.447 L13.600,12.447 C13.600,12.447 13.600,12.076 13.600,9.888 C13.600,7.377 14.785,5.966 17.410,5.966 C17.840,5.966 19.810,5.966 19.810,5.966 L19.810,9.548 L19.852,9.629 C19.852,9.629 18.486,9.629 17.943,9.629 C17.270,9.629 17.078,9.862 17.078,10.653 C17.078,11.311 17.078,12.447 17.078,12.447 L19.852,12.447 Z" class="cls-1"/>
</svg>
