<svg xmlns="http://www.w3.org/2000/svg" width="25" height="25" viewBox="0 0 25 25">
  <defs>
    <style>
      .cls-1 {
        fill: #aad7fe;
        fill-rule: evenodd;
      }
    </style>
  </defs>
  <path id="Фигура_511" data-name="Фигура 511" class="cls-1" d="M2670,2591.5a12.5,12.5,0,1,1-12.5-12.5A12.5,12.5,0,0,1,2670,2591.5Zm-10.91-8.29a1.707,1.707,0,0,1,1.72,1.73,1.715,1.715,0,0,1-3.43,0,1.668,1.668,0,0,1,.5-1.22A1.632,1.632,0,0,1,2659.09,2583.21Zm0.73,5.39-2.4,8.33a4.885,4.885,0,0,0-.2.94,0.359,0.359,0,0,0,.1.24,0.333,0.333,0,0,0,.23.11,0.623,0.623,0,0,0,.4-0.18,7.13,7.13,0,0,0,1.26-1.57l0.4,0.24q-1.77,3.075-3.76,3.08a1.7,1.7,0,0,1-1.21-.43,1.441,1.441,0,0,1-.45-1.08,4.139,4.139,0,0,1,.19-1.11l1.63-5.59a4.778,4.778,0,0,0,.24-1.22,0.607,0.607,0,0,0-.23-0.46,0.869,0.869,0,0,0-.6-0.2c-0.12,0-.26.01-0.43,0.01l0.16-.46,3.97-.65h0.7Z" transform="translate(-2645 -2579)"/>
</svg>
