<svg xmlns="http://www.w3.org/2000/svg" xmlns:xlink="http://www.w3.org/1999/xlink" preserveAspectRatio="xMidYMid" width="20" height="20" viewBox="0 0 20 20">
  <defs>
    <style>
      .cls-1 {
        fill: #aad7fe;
        fill-rule: evenodd;
      }
    </style>
  </defs>
  <path d="M12.711,2.156 C9.842,-0.713 5.140,-0.679 2.231,2.230 C-0.679,5.140 -0.713,9.841 2.156,12.710 C4.886,15.440 9.273,15.540 12.199,13.038 L18.988,19.826 C19.216,20.054 19.590,20.052 19.821,19.820 C20.053,19.588 20.056,19.215 19.827,18.986 L13.039,12.199 C15.541,9.273 15.441,4.886 12.711,2.156 ZM11.948,11.663 C11.888,11.692 11.830,11.729 11.780,11.779 C11.730,11.829 11.692,11.887 11.664,11.947 C9.208,14.254 5.362,14.236 2.996,11.871 C0.583,9.458 0.611,5.505 3.058,3.058 C5.505,0.611 9.459,0.583 11.872,2.996 C14.237,5.361 14.255,9.207 11.948,11.663 Z" class="cls-1"/>
</svg>
