<svg xmlns="http://www.w3.org/2000/svg" xmlns:xlink="http://www.w3.org/1999/xlink" preserveAspectRatio="xMidYMid" width="32" height="32" viewBox="0 0 32 32">
  <defs>
    <style>
      .cls-1 {
        fill: #41464b;
        fill-rule: evenodd;
      }
    </style>
  </defs>
  <path d="M16.000,32.000 C7.163,32.000 0.000,24.837 0.000,16.000 C0.000,7.163 7.163,0.000 16.000,0.000 C24.837,0.000 32.000,7.163 32.000,16.000 C32.000,24.837 24.837,32.000 16.000,32.000 ZM16.000,1.000 C7.716,1.000 1.000,7.716 1.000,16.000 C1.000,24.284 7.716,31.000 16.000,31.000 C24.284,31.000 31.000,24.284 31.000,16.000 C31.000,7.716 24.284,1.000 16.000,1.000 ZM18.616,20.424 C18.519,20.451 18.423,20.480 18.289,20.519 C18.369,20.611 18.421,20.676 18.478,20.736 C19.336,21.641 20.199,22.541 21.052,23.451 C21.732,24.177 21.577,25.339 20.747,25.821 C20.198,26.140 19.523,26.036 19.062,25.553 C18.219,24.669 17.380,23.783 16.539,22.898 C16.350,22.699 16.350,22.699 16.155,22.904 C15.323,23.780 14.495,24.658 13.659,25.530 C13.084,26.130 12.224,26.156 11.667,25.601 C11.085,25.022 11.070,24.076 11.647,23.462 C12.505,22.548 13.372,21.642 14.234,20.732 C14.287,20.676 14.335,20.616 14.410,20.529 C14.322,20.499 14.267,20.475 14.209,20.460 C13.276,20.210 12.390,19.842 11.571,19.306 C11.001,18.932 10.748,18.294 10.911,17.633 C11.062,17.020 11.606,16.536 12.239,16.537 C12.507,16.537 12.801,16.639 13.036,16.783 C13.772,17.233 14.548,17.558 15.388,17.690 C16.904,17.928 18.322,17.626 19.635,16.791 C20.278,16.382 20.989,16.473 21.474,17.024 C22.025,17.651 21.946,18.701 21.282,19.192 C20.475,19.789 19.566,20.161 18.616,20.424 ZM16.346,16.283 C13.680,16.312 11.462,13.949 11.466,11.131 C11.469,8.385 13.642,5.945 16.447,5.998 C19.065,6.047 21.309,8.345 21.237,11.288 C21.169,14.074 18.966,16.311 16.346,16.283 ZM16.309,8.313 C15.042,8.313 14.015,9.502 14.015,10.969 C14.015,12.436 15.042,13.625 16.309,13.625 C17.576,13.625 18.603,12.436 18.603,10.969 C18.603,9.502 17.576,8.313 16.309,8.313 Z" class="cls-1"/>
</svg>
