<svg xmlns="http://www.w3.org/2000/svg" xmlns:xlink="http://www.w3.org/1999/xlink" preserveAspectRatio="xMidYMid" width="32" height="32" viewBox="0 0 32 32">
  <defs>
    <style>
      .cls-1 {
        fill: #41464b;
        fill-rule: evenodd;
      }
    </style>
  </defs>
  <path d="M16.000,32.000 C7.163,32.000 0.000,24.837 0.000,16.000 C0.000,7.163 7.163,0.000 16.000,0.000 C24.837,0.000 32.000,7.163 32.000,16.000 C32.000,24.837 24.837,32.000 16.000,32.000 ZM16.000,1.000 C7.716,1.000 1.000,7.716 1.000,16.000 C1.000,24.284 7.716,31.000 16.000,31.000 C24.284,31.000 31.000,24.284 31.000,16.000 C31.000,7.716 24.284,1.000 16.000,1.000 ZM9.656,10.684 L9.656,8.001 C17.375,8.001 23.655,14.280 23.655,21.999 L20.960,21.999 C20.960,15.760 15.889,10.684 9.656,10.684 ZM18.894,21.996 L16.199,21.996 C16.199,20.242 15.518,18.594 14.280,17.357 C13.044,16.120 11.400,15.440 9.651,15.440 L9.651,12.757 C14.748,12.757 18.894,16.901 18.894,21.996 ZM11.516,18.267 C12.546,18.267 13.383,19.098 13.383,20.125 C13.383,21.151 12.547,21.983 11.516,21.983 C10.485,21.983 9.649,21.151 9.649,20.125 C9.649,19.098 10.485,18.267 11.516,18.267 Z" class="cls-1"/>
</svg>
