<?xml version="1.0" encoding="utf-8"?>
<!-- Generator: Adobe Illustrator 21.0.2, SVG Export Plug-In . SVG Version: 6.00 Build 0)  -->
<svg version="1.1" id="Layer_1" xmlns="http://www.w3.org/2000/svg" xmlns:xlink="http://www.w3.org/1999/xlink" x="0px" y="0px"
	 viewBox="0 0 26.7 26.2" style="enable-background:new 0 0 26.7 26.2;" xml:space="preserve">
<style type="text/css">
	.st0{fill:none;stroke:#BAD7FC;stroke-miterlimit:10;}
</style>
<g>
	<path class="st0" d="M24.3,0.6L13.8,5.5H3.7c-0.8,0-1.4,0.6-1.4,1.4v1.9c-1,0-1.8,0.8-1.8,1.8v0.8c0,1,0.8,1.8,1.8,1.8v1.9
		c0,0.8,0.6,1.4,1.4,1.4h1.8L8.2,24c0.3,1,1.2,1.7,2.3,1.7l0,0c1.6,0,2.8-1.6,2.3-3.1l-2.4-6.2l3.3,0l10.6,4.9
		c0.9,0.4,1.9-0.3,1.9-1.3V11V9.6V1.9C26.2,0.9,25.2,0.2,24.3,0.6z"/>
	<line class="st0" x1="13.8" y1="5.5" x2="13.8" y2="16.4"/>
	<line class="st0" x1="23.2" y1="1.2" x2="23.2" y2="20.9"/>
	<line class="st0" x1="2.3" y1="8.8" x2="2.3" y2="13.2"/>
	<line class="st0" x1="5.5" y1="16.4" x2="10.5" y2="16.4"/>
</g>
</svg>
