<?xml version="1.0" encoding="utf-8"?>
<!-- Generator: Adobe Illustrator 21.0.0, SVG Export Plug-In . SVG Version: 6.00 Build 0)  -->
<svg version="1.1" xmlns="http://www.w3.org/2000/svg" xmlns:xlink="http://www.w3.org/1999/xlink" x="0px" y="0px"
	 viewBox="0 0 32 32" style="enable-background:new 0 0 32 32;" xml:space="preserve">
<style type="text/css">
	.st0{fill:#41464B;}
	.st1{fill:url(#SVGID_1_);}
</style>
<g id="Layer_1">
	<g>
		<path class="st0" d="M16,0C7.2,0,0,7.2,0,16s7.2,16,16,16s16-7.2,16-16S24.8,0,16,0z M16,31C7.7,31,1,24.3,1,16S7.7,1,16,1
			s15,6.7,15,15S24.3,31,16,31z"/>
	</g>
	<path class="st0" d="M21.4,9.5L8.1,14c-0.6,0.2-0.8,1-0.2,1.4l3.9,1.7c1.4,0.6,2.5,1.8,3.2,3.2l1.7,3.9c0.4,0.5,1.2,0.4,1.4-0.2
		l4.4-13.3C22.7,9.9,22.1,9.3,21.4,9.5z"/>
</g>
<g id="Layer_2">
</g>
</svg>
