<svg xmlns="http://www.w3.org/2000/svg" xmlns:xlink="http://www.w3.org/1999/xlink" preserveAspectRatio="xMidYMid" width="32" height="32" viewBox="0 0 32 32">
  <defs>
    <style>
      .cls-1 {
        fill: #41464b;
        fill-rule: evenodd;
      }
    </style>
  </defs>
  <path d="M16.000,32.000 C7.163,32.000 0.000,24.837 0.000,16.000 C0.000,7.163 7.163,0.000 16.000,0.000 C24.837,0.000 32.000,7.163 32.000,16.000 C32.000,24.837 24.837,32.000 16.000,32.000 ZM16.000,1.000 C7.716,1.000 1.000,7.716 1.000,16.000 C1.000,24.284 7.716,31.000 16.000,31.000 C24.284,31.000 31.000,24.284 31.000,16.000 C31.000,7.716 24.284,1.000 16.000,1.000 ZM23.368,12.483 C23.601,17.452 19.727,22.992 12.869,22.992 C10.783,22.992 8.841,22.407 7.206,21.405 C9.166,21.626 11.122,21.106 12.675,19.941 C11.059,19.913 9.694,18.892 9.224,17.488 C9.803,17.594 10.373,17.563 10.892,17.428 C9.116,17.086 7.890,15.556 7.930,13.919 C8.428,14.184 8.997,14.342 9.603,14.361 C7.958,13.309 7.492,11.232 8.460,9.644 C10.282,11.781 13.004,13.188 16.073,13.335 C15.535,11.125 17.287,8.997 19.672,8.997 C20.734,8.997 21.694,9.426 22.368,10.113 C23.209,9.954 24.000,9.660 24.714,9.255 C24.438,10.080 23.852,10.773 23.089,11.210 C23.837,11.125 24.549,10.935 25.211,10.654 C24.716,11.362 24.090,11.985 23.368,12.483 Z" class="cls-1"/>
</svg>
