<svg xmlns="http://www.w3.org/2000/svg" xmlns:xlink="http://www.w3.org/1999/xlink" preserveAspectRatio="xMidYMid" width="32" height="32" viewBox="0 0 32 32">
  <defs>
    <style>
      .cls-1 {
        fill: #41464b;
        fill-rule: evenodd;
      }
    </style>
  </defs>
  <path d="M16.000,32.000 C7.163,32.000 0.000,24.837 0.000,16.000 C0.000,7.163 7.163,0.000 16.000,0.000 C24.837,0.000 32.000,7.163 32.000,16.000 C32.000,24.837 24.837,32.000 16.000,32.000 ZM16.000,1.000 C7.716,1.000 1.000,7.716 1.000,16.000 C1.000,24.284 7.716,31.000 16.000,31.000 C24.284,31.000 31.000,24.284 31.000,16.000 C31.000,7.716 24.284,1.000 16.000,1.000 ZM24.114,18.678 C25.813,20.002 27.963,22.035 25.551,22.035 C24.912,22.035 23.143,22.035 22.485,22.035 C20.754,22.035 20.459,21.206 19.033,20.008 C17.744,18.926 17.030,19.756 17.060,21.299 C17.068,21.708 16.828,22.035 16.245,22.035 C14.429,22.035 11.819,22.250 9.178,19.856 C6.325,17.270 3.912,12.736 3.702,12.267 C3.492,11.798 3.787,11.567 4.388,11.567 C5.059,11.567 7.055,11.567 7.507,11.567 C8.332,11.567 8.402,11.923 8.632,12.364 C9.590,14.199 11.887,17.884 12.499,15.828 C12.850,14.647 12.994,12.131 11.489,11.896 C10.422,11.729 13.034,10.573 16.049,11.161 C17.152,11.376 17.156,11.793 17.142,12.399 C17.087,14.696 16.757,16.021 17.477,16.412 C18.165,16.786 19.977,14.339 20.930,12.451 C21.193,11.930 21.246,11.567 21.986,11.567 C25.689,11.567 25.410,11.567 25.801,11.567 C27.798,11.567 25.541,13.991 23.814,15.873 C22.422,17.389 22.498,17.418 24.114,18.678 Z" class="cls-1"/>
</svg>
